<?xml version="1.0" standalone="no"?>
<!DOCTYPE svg PUBLIC "-//W3C//DTD SVG 20010904//EN"
 "http://www.w3.org/TR/2001/REC-SVG-20010904/DTD/svg10.dtd">
<svg version="1.0" xmlns="http://www.w3.org/2000/svg"
 width="1000.000000pt" height="1000.000000pt" viewBox="0 0 1000.000000 1000.000000"
 preserveAspectRatio="xMidYMid meet">

<g transform="translate(0.000000,1000.000000) scale(0.100000,-0.100000)"
fill="#000000" stroke="none">
<path d="M4860 7674 c-426 -31 -832 -182 -1174 -437 -105 -80 -300 -269 -386
-377 -243 -306 -404 -683 -455 -1067 -29 -214 -20 -498 21 -716 121 -635 540
-1196 1124 -1505 305 -161 650 -245 1010 -245 346 1 655 71 955 218 284 139
552 353 746 595 244 304 406 691 460 1095 18 132 15 438 -5 570 -37 238 -99
442 -201 650 -314 648 -928 1095 -1645 1199 -109 16 -354 27 -450 20z m250
-1455 c162 -26 277 -86 400 -209 94 -94 139 -163 176 -270 90 -259 31 -533
-158 -735 -203 -218 -498 -288 -781 -185 -167 61 -313 193 -392 354 -60 122
-78 197 -79 326 0 129 18 202 80 329 38 77 62 110 128 176 175 177 395 252
626 214z"/>
<path d="M2322 3057 l-422 -422 132 -131 c232 -229 437 -396 684 -556 554
-361 1136 -569 1824 -655 200 -24 724 -25 920 0 536 67 969 196 1420 422 182
91 287 152 460 269 240 162 384 280 618 510 l142 141 -422 422 -422 422 -146
-142 c-268 -264 -498 -426 -823 -582 -465 -223 -1035 -328 -1542 -285 -501 43
-956 200 -1375 475 -174 113 -311 225 -480 392 l-146 142 -422 -422z"/>
</g>
</svg>
